#!OML:ASF X:\für Bonn\!DataBase\2005_08_10_Bjorn_Final\c3d\bjorn.ASF
:FULLY-SPECIFIED
:DEGREES
153
root -14.9679 18.8959 12.9701 181.696 52.0134 -529.482
lowerback 8.89646 -1.76247 -1.65096
upperback 18.4345 0.0974822 0.0696649
thorax 15.5699 0.776755 1.26469
lowerneck 8.17829 -1.44341 2.48579
upperneck -8.86144 -1.06528 4.59967
head -4.39978 -0.81061 1.17782
rclavicle -1.90833e-014 4.45278e-014
rhumerus -22.7025 -13.2932 -87.9969
rradius 72.2055
rwrist -1.32083
rhand -22.3268 18.8539
rfingers 7.12502
rthumb 4.09324 -11.0865
lclavicle -1.90833e-014 4.45278e-014
lhumerus -8.87475 -2.792 88.0153
lradius 68.5028
lwrist -17.6279
lhand -46.8816 -16.7445
lfingers 7.12502
lthumb -19.5935 12.2882
rfemur -42.2396 -17.6792 13.5252
rtibia 98.4877
rfoot 9.46031 20.7041
rtoes -31.1577
lfemur -7.20189 12.1174 -10.2517
ltibia 39.4014
lfoot -17.6657 8.8253
ltoes -1.48315
154
root -14.9329 18.8786 12.9087 181.418 52.2538 -529.445
lowerback 8.84223 -1.82936 -1.58204
upperback 18.445 -0.00709338 0.11237
thorax 15.619 0.728107 1.27017
lowerneck 8.03798 -1.31054 2.61781
upperneck -8.61806 -0.92747 4.26561
head -4.28559 -0.725802 1.02622
rclavicle 3.4191e-014 -3.89618e-014
rhumerus -22.6925 -13.4727 -87.9178
rradius 72.6421
rwrist -1.34392
rhand -22.5069 18.6809
rfingers 7.12502
rthumb 3.91928 -11.2628
lclavicle 3.4191e-014 -3.89618e-014
lhumerus -8.66817 -3.08099 88.0327
lradius 68.6328
lwrist -17.7306
lhand -46.9977 -16.9024
lfingers 7.12502
lthumb -19.705 12.1188
rfemur -43.0114 -18.078 13.654
rtibia 98.5474
rfoot 9.43803 20.7722
rtoes -30.8406
lfemur -6.57833 12.2529 -10.2056
ltibia 39.4474
lfoot -17.963 8.85368
ltoes -1.14066
155
root -14.8966 18.8623 12.8472 181.107 52.5072 -529.467
lowerback 8.77932 -1.88357 -1.53264
upperback 18.4515 -0.094217 0.145146
thorax 15.6684 0.685873 1.27579
lowerneck 7.89189 -1.18644 2.70707
upperneck -8.35453 -0.805444 3.94975
head -4.16265 -0.648261 0.890584
rclavicle 1.66979e-014 -2.06736e-014
rhumerus -22.7088 -13.6485 -87.826
rradius 73.1087
rwrist -1.34422
rhand -22.668 18.5527
rfingers 7.12502
rthumb 3.76375 -11.3938
lclavicle 1.66979e-014 -2.06736e-014
lhumerus -8.4718 -3.40005 88.0408
lradius 68.7635
lwrist -17.812
lhand -47.1311 -17.0188
lfingers 7.12502
lthumb -19.8333 11.9893
rfemur -43.7486 -18.4202 13.7376
rtibia 98.4837
rfoot 9.49849 20.6733
rtoes -30.4002
lfemur -5.95411 12.3557 -10.2093
ltibia 39.4851
lfoot -18.2318 8.92178
ltoes -0.808072
156
root -14.8601 18.8457 12.7868 180.845 52.7323 -529.432
lowerback 8.72875 -1.95 -1.44522
upperback 18.4553 -0.20055 0.196063
thorax 15.7058 0.638027 1.27963
lowerneck 7.79707 -1.05086 2.69566
upperneck -8.1264 -0.666896 3.71175
head -4.06253 -0.564439 0.80036
rclavicle 6.40087e-014 -5.64548e-014
rhumerus -22.6896 -13.7821 -87.716
rradius 73.5459
rwrist -1.31776
rhand -22.8375 18.4324
rfingers 7.12502
rthumb 3.60006 -11.517
lclavicle 6.40087e-014 -5.64548e-014
lhumerus -8.30744 -3.65373 88.0809
lradius 68.8879
lwrist -17.92
lhand -47.2686 -17.1859
lfingers 7.12502
lthumb -19.9655 11.8085
rfemur -44.4308 -18.7375 13.8672
rtibia 98.3152
rfoot 9.60004 20.545
rtoes -29.8336
lfemur -5.34265 12.4577 -10.1679
ltibia 39.5119
lfoot -18.4947 8.96611
ltoes -0.459476
157
root -14.8236 18.8283 12.7255 180.569 52.9731 -529.429
lowerback 8.65907 -2.00803 -1.35304
upperback 18.4631 -0.293573 0.236301
thorax 15.7598 0.598551 1.26959
lowerneck 7.7248 -0.927093 2.72268
upperneck -7.92115 -0.541014 3.43205
head -3.97533 -0.487241 0.691476
rclavicle -3.10104e-014 -1.03368e-014
rhumerus -22.6775 -13.9207 -87.6205
rradius 74.0254
rwrist -1.20835
rhand -22.991 18.323
rfingers 7.12502
rthumb 3.45174 -11.6288
lclavicle -3.10104e-014 -1.03368e-014
lhumerus -8.11842 -3.93975 88.1022
lradius 69.0012
lwrist -18.038
lhand -47.4197 -17.2229
lfingers 7.12502
lthumb -20.1107 11.7562
rfemur -45.0827 -19.0099 13.9613
rtibia 98.0457
rfoot 9.82593 20.3905
rtoes -28.8577
lfemur -4.7304 12.5473 -10.1643
ltibia 39.5268
lfoot -18.7434 9.0664
ltoes -0.209442
158
root -14.7862 18.8132 12.6657 180.292 53.2102 -529.454
lowerback 8.58953 -2.06146 -1.29169
upperback 18.4523 -0.385706 0.280562
thorax 15.79 0.553125 1.28005
lowerneck 7.67757 -0.795758 2.71696
upperneck -7.68462 -0.405259 3.18157
head -3.88195 -0.405492 0.598336
rclavicle 6.55989e-014 -5.48646e-014
rhumerus -22.6612 -14.0398 -87.514
rradius 74.4434
rwrist -1.06348
rhand -23.1084 18.3216
rfingers 7.12502
rthumb 3.33839 -11.632
lclavicle 6.55989e-014 -5.48646e-014
lhumerus -7.97335 -4.16369 88.1447
lradius 69.0694
lwrist -18.1946
lhand -47.507 -17.348
lfingers 7.12502
lthumb -20.1946 11.6223
rfemur -45.724 -19.2552 14.0661
rtibia 97.6898
rfoot 9.94444 20.3505
rtoes -28.3844
lfemur -4.14283 12.6474 -10.1678
ltibia 39.548
lfoot -19.0119 9.12695
ltoes 0.155068
159
root -14.7486 18.7969 12.6056 180.068 53.453 -529.448
lowerback 8.48783 -2.11377 -1.18488
upperback 18.4502 -0.473637 0.310847
thorax 15.8499 0.517979 1.25019
lowerneck 7.64858 -0.671386 2.77703
upperneck -7.50383 -0.268199 2.91315
head -3.81222 -0.325328 0.488866
rclavicle -2.78299e-015 -7.95139e-015
rhumerus -22.604 -14.166 -87.4485
rradius 74.8357
rwrist -0.870635
rhand -23.2281 18.3159
rfingers 7.12502
rthumb 3.22282 -11.6395
lclavicle -2.78299e-015 -7.95139e-015
lhumerus -7.77486 -4.41439 88.1549
lradius 69.1073
lwrist -18.3027
lhand -47.668 -17.4507
lfingers 7.12502
lthumb -20.3494 11.5031
rfemur -46.3447 -19.4744 14.2099
rtibia 97.2301
rfoot 10.0721 20.3383
rtoes -27.7223
lfemur -3.601 12.7481 -10.1636
ltibia 39.5906
lfoot -19.2697 9.21147
ltoes 0.344488
160
root -14.7113 18.7763 12.5472 179.807 53.7023 -529.501
lowerback 8.38954 -2.15909 -1.10415
upperback 18.4385 -0.55322 0.330586
thorax 15.8952 0.48362 1.22257
lowerneck 7.60389 -0.55238 2.81757
upperneck -7.28303 -0.139703 2.66877
head -3.72508 -0.249247 0.391659
rclavicle -3.73715e-014 2.38542e-014
rhumerus -22.5589 -14.248 -87.376
rradius 75.2071
rwrist -0.667625
rhand -23.3731 18.3584
rfingers 7.12502
rthumb 3.0828 -11.5991
lclavicle -3.73715e-014 2.38542e-014
lhumerus -7.61214 -4.65045 88.1726
lradius 69.1431
lwrist -18.4444
lhand -47.8352 -17.5116
lfingers 7.12502
lthumb -20.5101 11.4251
rfemur -46.8751 -19.6433 14.3299
rtibia 96.6332
rfoot 10.1984 20.3827
rtoes -26.9494
lfemur -3.09349 12.8805 -10.19
ltibia 39.6678
lfoot -19.5225 9.28842
ltoes 0.550683
161
root -14.6736 18.7519 12.4884 179.593 53.9776 -529.52
lowerback 8.26894 -2.20427 -0.998194
upperback 18.431 -0.633131 0.349399
thorax 15.9591 0.4526 1.17987
lowerneck 7.58512 -0.423257 2.86787
upperneck -7.10459 0.00458233 2.39828
head -3.6579 -0.165589 0.284247
rclavicle -3.02153e-014 -9.54166e-015
rhumerus -22.4761 -14.3169 -87.3223
rradius 75.5097
rwrist -0.453035
rhand -23.4834 18.4512
rfingers 7.12502
rthumb 2.97623 -11.5077
lclavicle -3.02153e-014 -9.54166e-015
lhumerus -7.4271 -4.8378 88.1751
lradius 69.1443
lwrist -18.5744
lhand -47.9424 -17.5252
lfingers 7.12502
lthumb -20.6131 11.4003
rfemur -47.3484 -19.7776 14.4982
rtibia 95.9178
rfoot 10.2586 20.4748
rtoes -26.4165
lfemur -2.61765 13.0137 -10.2002
ltibia 39.7829
lfoot -19.799 9.3564
ltoes 0.801724
